<svg width="179" height="178" viewBox="0 0 179 178" fill="none" xmlns="http://www.w3.org/2000/svg">
<path d="M60.4535 79.2808H60.5084C60.8379 79.2808 61.03 79.5265 61.03 79.8541V94.5691C61.03 94.8148 60.8379 95.0878 60.5084 95.0878C60.2613 95.0878 59.9868 94.8967 59.9868 94.5691V79.7995C59.9868 79.5265 60.179 79.2808 60.4535 79.2808ZM46.3696 80.0452H56.0609C56.3903 80.0452 56.5825 80.3728 56.5825 80.6185C56.5825 80.8642 56.3903 81.1372 56.0609 81.1372H46.8912V87.2798H55.1823C55.4294 87.2798 55.704 87.4709 55.704 87.7986C55.704 88.0443 55.5118 88.3173 55.1823 88.3173H46.9736V94.651C46.9187 94.9786 46.6442 95.2243 46.3422 95.2243C46.0127 95.2243 45.7656 94.9786 45.7656 94.651V80.6458H45.8205C45.7931 80.2909 46.0676 80.0452 46.3696 80.0452ZM74.5099 84.6044C74.5099 84.2768 74.2629 84.0857 73.9883 84.0857C73.6589 84.0857 73.4667 84.3314 73.4667 84.6044V90.747C73.4667 92.8492 71.7371 94.4872 69.6231 94.4326C67.3719 94.4326 66.0816 92.9857 66.0816 90.6924V84.6044C66.0816 84.2768 65.8345 84.0857 65.5599 84.0857C65.3129 84.0857 65.0383 84.3314 65.0383 84.6044V90.8835C65.0383 93.4771 66.713 95.3881 69.4584 95.3881C71.1331 95.4427 72.7254 94.5691 73.4942 93.0949V94.6783C73.4942 95.0059 73.7412 95.197 74.0158 95.197C74.3452 95.197 74.5374 94.9513 74.5374 94.6783H74.4825V84.6044H74.5099ZM84.2561 84.6863C84.2561 84.932 84.009 85.1231 83.7345 85.1231H80.1929V92.1667C80.1929 93.7501 81.0989 94.3234 82.4442 94.3234C82.8834 94.3234 83.3501 94.2688 83.7345 94.1323C83.9816 94.1323 84.1738 94.3234 84.1738 94.5691C84.1738 94.7602 84.0365 94.9513 83.8443 95.0059C83.3227 95.197 82.7461 95.2516 82.252 95.2516C80.5773 95.2516 79.1771 94.2961 79.1771 92.2759V85.1231H77.9692C77.7221 85.1231 77.4475 84.8774 77.4475 84.6044C77.4475 84.3587 77.6946 84.1676 77.9692 84.1676H79.1771V81.1372C79.1771 80.8915 79.3693 80.6185 79.6164 80.6185H79.6713C79.9184 80.6185 80.1929 80.8642 80.1929 81.1372V84.1676H83.7345C84.009 84.1676 84.2561 84.4133 84.2561 84.6863ZM92.4923 85.1231C92.7394 85.1231 93.0139 84.932 93.0139 84.6863C93.0139 84.4406 92.7668 84.1676 92.4923 84.1676H88.9507V81.1372C88.9507 80.8915 88.7037 80.6185 88.4291 80.6185H88.3742C88.1271 80.6185 87.9349 80.8642 87.9349 81.1372V84.1676H86.727C86.4799 84.1676 86.2053 84.3587 86.2053 84.6044C86.2053 84.8501 86.4524 85.1231 86.727 85.1231H87.9349V92.2759C87.9349 94.2961 89.3351 95.2516 91.0098 95.2516C91.5314 95.2516 92.108 95.197 92.6021 95.0059C92.7943 94.9513 92.9316 94.7602 92.9316 94.5691C92.9316 94.3234 92.7394 94.1323 92.4923 94.1323C92.108 94.2688 91.6687 94.3234 91.202 94.3234C89.8567 94.3234 88.9507 93.7501 88.9507 92.1667V85.1231H92.4923ZM94.9357 89.6277C94.9357 86.4062 97.1869 83.8673 100.207 83.8673C103.364 83.8673 105.341 86.4062 105.341 89.6277C105.341 89.8734 105.094 90.1464 104.819 90.1464H96.0888C96.281 92.8765 98.2851 94.4599 100.454 94.4599C101.799 94.4599 103.144 93.8866 104.05 92.9311C104.105 92.8765 104.243 92.7946 104.38 92.7946C104.627 92.7946 104.902 93.0403 104.902 93.3133C104.902 93.4498 104.847 93.559 104.709 93.6955C103.611 94.8967 102.019 95.5246 100.399 95.47C97.434 95.47 94.9357 93.1768 94.9357 89.7096V89.6277ZM109.514 87.3344C110.228 85.5053 111.957 84.1676 113.934 84.0311C114.263 84.0311 114.51 84.2768 114.51 84.659C114.51 84.9047 114.318 85.2323 113.989 85.2323H113.934C111.545 85.478 109.514 87.1979 109.514 90.747V94.8148C109.459 95.1424 109.267 95.3335 108.937 95.3335C108.69 95.3335 108.416 95.0878 108.416 94.8148V84.659C108.471 84.3314 108.663 84.1403 108.992 84.1403C109.239 84.1403 109.514 84.386 109.514 84.659V87.3344ZM131.45 83.4578C130.681 83.4578 130.049 83.9765 129.857 84.7136L127.99 90.6105L126.123 84.7136C125.931 83.9492 125.217 83.3759 124.394 83.3759H124.202C123.378 83.3759 122.664 83.8946 122.472 84.7136L120.605 90.5559L118.821 84.659C118.628 83.9492 117.997 83.4032 117.228 83.4032H117.173C116.35 83.4032 115.691 84.113 115.691 84.932C115.691 85.1777 115.746 85.4507 115.828 85.6964L118.711 93.8866C118.903 94.7056 119.617 95.2789 120.495 95.3335H120.633C121.456 95.3335 122.17 94.7602 122.417 93.9412L124.284 88.0989L126.151 93.9412C126.343 94.7602 127.112 95.3335 127.935 95.3335H128.073C128.979 95.3335 129.747 94.7602 129.94 93.8866L132.822 85.6418C132.877 85.4507 132.959 85.205 132.959 85.0139V84.9593C132.932 84.113 132.301 83.4578 131.45 83.4578ZM135.952 84.0311C137.16 83.6489 138.395 83.4032 139.686 83.4578C141.47 83.4578 142.761 83.9765 143.721 84.7955C144.627 85.8056 145.067 87.1433 145.012 88.4811V93.6682C145.012 94.5691 144.298 95.2516 143.419 95.2516C142.596 95.2516 141.882 94.6783 141.827 93.8593C140.921 94.8148 139.631 95.3881 138.286 95.3062C136.172 95.3062 134.305 94.0504 134.305 91.7571C134.305 89.2182 136.227 88.017 138.999 88.017C139.96 88.017 140.921 88.1535 141.827 88.4538V88.2627C141.827 86.8703 141.004 86.1605 139.329 86.1605C138.56 86.1605 137.791 86.2151 137.023 86.4881C136.885 86.5427 136.693 86.5427 136.583 86.5427C135.815 86.5973 135.183 86.024 135.183 85.2869C135.128 84.7409 135.43 84.2222 135.952 84.0311ZM154.895 84.5498C155.087 83.84 155.719 83.4032 156.433 83.4032C157.339 83.4032 158.025 84.113 158.025 84.932V84.9866C158.025 85.2323 157.97 85.5053 157.833 85.751L154.374 93.9412C154.044 94.7602 153.275 95.2789 152.452 95.3335H152.26C151.354 95.2789 150.667 94.7056 150.393 93.8866L146.796 85.6964C146.659 85.4507 146.604 85.1777 146.604 84.932C146.659 84.0311 147.373 83.4032 148.196 83.4032C148.965 83.4032 149.597 83.9219 149.789 84.6044L152.287 91.2657L154.895 84.5498ZM159.343 89.8734C159.48 93.0403 162.225 95.5246 165.438 95.3335C166.92 95.3335 168.32 94.8967 169.473 93.9412C169.803 93.6955 169.913 93.3679 169.913 92.9857V92.9311C169.913 92.2213 169.336 91.6752 168.622 91.6752C168.375 91.6752 168.046 91.7298 167.853 91.9209C167.14 92.4397 166.316 92.74 165.465 92.6854C164.065 92.74 162.829 91.7844 162.637 90.3921H169.254C170.077 90.3375 170.736 89.6277 170.654 88.8087V88.563C170.654 85.6964 168.155 83.294 165.081 83.3759C161.676 83.3759 159.288 86.1059 159.288 89.4093V89.8734H159.343Z" fill="#10112B"/>
<path d="M96.0078 89.109C96.2 86.7065 97.9296 84.8501 100.126 84.8501C102.624 84.8501 103.969 86.8703 104.107 89.109H96.0078ZM141.856 91.02C141.856 92.2759 140.758 93.0403 139.22 92.9857C138.205 92.9857 137.436 92.467 137.436 91.5934V91.5387C137.436 90.5832 138.342 89.9553 139.742 89.9553C140.456 89.9553 141.225 90.1464 141.856 90.3921V91.02ZM165.11 85.9967C163.764 85.9967 162.858 86.9523 162.611 88.4811H167.553C167.361 87.0069 166.455 85.9967 165.11 85.9967Z" fill="white"/>
<path d="M28.2897 71.9915C42.7305 69.8348 33.4785 82.0655 29.0035 85.5053C32.0784 87.8532 35.2356 91.1566 36.5808 94.8967C39.0791 101.749 32.9294 102.759 28.2897 101.039C23.2107 99.2648 18.7357 95.4701 15.7707 91.0201C14.9471 91.0201 14.0411 90.8836 13.19 90.6378C14.8647 95.3336 15.5785 100.138 15.1118 104.07C15.1118 96.1526 11.3232 88.29 5.85981 81.7378C3.93803 79.4446 5.91471 77.752 7.64432 79.9633C8.82484 81.574 9.89554 83.2394 10.8564 84.9593C12.7508 78.5164 21.9753 72.8925 28.2897 71.9915ZM26.2307 83.6489C29.0584 81.929 37.6515 72.7559 29.635 73.575C25.0227 74.0937 19.4221 78.3253 17.1159 81.0553C20.3281 80.6731 23.5951 82.0655 26.2307 83.6489ZM18.269 90.7744C20.8497 93.6409 24.3638 96.4256 28.1524 97.4357C30.3488 98.009 32.7647 97.7633 31.8862 94.651C30.9802 91.7845 28.6741 89.2728 26.4228 87.3618C25.7914 87.7986 25.0776 88.2627 24.3638 88.563C22.442 89.6277 20.383 90.3921 18.269 90.7744Z" fill="#EBA12A"/>
<path d="M17.9269 83.0757C20.1232 82.8846 22.4842 84.0312 24.2962 85.1778C22.5666 85.9968 20.6448 86.5156 18.6407 86.6248C15.7031 86.6521 15.0991 83.3487 17.9269 83.0757Z" fill="white"/>
</svg>
