<svg width="84" height="28" viewBox="0 0 84 28" fill="none" xmlns="http://www.w3.org/2000/svg">
<g clip-path="url(#clip0_1695_22066)">
<path d="M35.7426 14.3593C35.7426 18.2458 32.6575 21.1098 28.8713 21.1098C25.0851 21.1098 22 18.2458 22 14.3593C22 10.4454 25.0851 7.60889 28.8713 7.60889C32.6575 7.60889 35.7426 10.4454 35.7426 14.3593ZM32.7347 14.3593C32.7347 11.9306 30.9466 10.2689 28.8713 10.2689C26.796 10.2689 25.0079 11.9306 25.0079 14.3593C25.0079 16.7637 26.796 18.4498 28.8713 18.4498C30.9466 18.4498 32.7347 16.7606 32.7347 14.3593Z" fill="#EA4335"/>
<path d="M50.5708 14.3593C50.5708 18.2458 47.4856 21.1098 43.6994 21.1098C39.9133 21.1098 36.8281 18.2458 36.8281 14.3593C36.8281 10.4485 39.9133 7.60889 43.6994 7.60889C47.4856 7.60889 50.5708 10.4454 50.5708 14.3593ZM47.5628 14.3593C47.5628 11.9306 45.7747 10.2689 43.6994 10.2689C41.6242 10.2689 39.8361 11.9306 39.8361 14.3593C39.8361 16.7637 41.6242 18.4498 43.6994 18.4498C45.7747 18.4498 47.5628 16.7606 47.5628 14.3593Z" fill="#FBBC05"/>
<path d="M64.7718 8.01671V20.1358C64.7718 25.1211 61.7886 27.1571 58.2618 27.1571C54.942 27.1571 52.9439 24.9689 52.1903 23.1793L54.8092 22.105C55.2755 23.2037 56.4181 24.5002 58.2587 24.5002C60.5162 24.5002 61.9152 23.1276 61.9152 20.5437V19.5728H61.8102C61.137 20.3915 59.8399 21.1067 58.2031 21.1067C54.7783 21.1067 51.6406 18.1667 51.6406 14.3837C51.6406 10.5732 54.7783 7.60889 58.2031 7.60889C59.8368 7.60889 61.1339 8.3241 61.8102 9.11845H61.9152V8.01976H64.7718V8.01671ZM62.1283 14.3837C62.1283 12.0067 60.5193 10.2689 58.4718 10.2689C56.3965 10.2689 54.6578 12.0067 54.6578 14.3837C54.6578 16.7363 56.3965 18.4498 58.4718 18.4498C60.5193 18.4498 62.1283 16.7363 62.1283 14.3837Z" fill="#4285F4"/>
<path d="M69.4885 0.913086V20.6957H66.5547V0.913086H69.4885Z" fill="#34A853"/>
<path d="M80.9196 16.5807L83.2543 18.1146C82.5007 19.2133 80.6849 21.1063 77.5472 21.1063C73.656 21.1063 70.75 18.142 70.75 14.3559C70.75 10.3416 73.6807 7.60547 77.2106 7.60547C80.7651 7.60547 82.5038 10.3933 83.0721 11.8998L83.384 12.6668L74.2274 16.4042C74.9284 17.7585 76.0185 18.4494 77.5472 18.4494C79.079 18.4494 80.1413 17.7068 80.9196 16.5807ZM73.7332 14.152L79.8541 11.6472C79.5175 10.8042 78.5046 10.2168 77.3125 10.2168C75.7838 10.2168 73.656 11.5468 73.7332 14.152Z" fill="#EA4335"/>
<path d="M10.8966 12.6031V9.73915H20.6894C20.7851 10.2383 20.8345 10.8287 20.8345 11.4678C20.8345 13.6165 20.2385 16.2735 18.3176 18.1665C16.4492 20.0839 14.062 21.1065 10.8997 21.1065C5.0382 21.1065 0.109375 16.4013 0.109375 10.6248C0.109375 4.84828 5.0382 0.143066 10.8997 0.143066C14.1423 0.143066 16.4523 1.39698 18.1879 3.03133L16.1373 5.0522C14.8928 3.90176 13.2066 3.00698 10.8966 3.00698C6.61629 3.00698 3.26864 6.40654 3.26864 10.6248C3.26864 14.8431 6.61629 18.2426 10.8966 18.2426C13.6729 18.2426 15.2541 17.1439 16.267 16.1457C17.0885 15.3361 17.6289 14.1796 17.842 12.6L10.8966 12.6031Z" fill="#4285F4"/>
</g>
<defs>
<clipPath id="clip0_1695_22066">
<rect width="84" height="28" fill="white"/>
</clipPath>
</defs>
</svg>
