<svg width="122" height="26" viewBox="0 0 122 26" fill="none" xmlns="http://www.w3.org/2000/svg">
<g clip-path="url(#clip0_1695_22053)">
<path d="M43.0622 14.9753L42.335 17.0311H42.2744C42.1532 16.5675 41.931 15.8621 41.5675 15.0156L37.6691 5.24042H33.8516V20.8203H36.3764V11.2063C36.3764 10.6017 36.3764 9.91639 36.3562 9.06987C36.336 8.64662 36.2956 8.32414 36.2754 8.08228H36.336C36.4572 8.68693 36.5986 9.13034 36.6996 9.41251L41.3857 20.78H43.1631L47.8088 9.31173C47.9098 9.04972 48.0108 8.52569 48.1118 8.08228H48.1724C48.1118 9.23111 48.0714 10.259 48.0512 10.8838V20.7598H50.7377V5.20011H47.0615L43.0622 14.9753ZM53.2827 9.5939H55.9085V20.7598H53.2827V9.5939ZM54.6158 4.87763C54.1714 4.87763 53.8078 5.03887 53.5049 5.32104C53.2019 5.60321 53.0403 5.966 53.0403 6.40941C53.0403 6.83266 53.2019 7.19546 53.5049 7.47763C53.8078 7.7598 54.1714 7.90088 54.6158 7.90088C55.0602 7.90088 55.4439 7.73964 55.7267 7.47763C56.0297 7.19546 56.1913 6.83266 56.1913 6.40941C56.1913 5.98615 56.0297 5.62336 55.7267 5.32104C55.4641 5.03887 55.0804 4.87763 54.6158 4.87763ZM65.2201 9.49313C64.7353 9.39235 64.2304 9.33189 63.7456 9.33189C62.5539 9.33189 61.4631 9.59391 60.5542 10.1179C59.6453 10.642 58.9181 11.3675 58.4535 12.2745C57.9688 13.2017 57.7264 14.2699 57.7264 15.4993C57.7264 16.5675 57.9688 17.5148 58.4333 18.3815C58.8979 19.228 59.5443 19.9133 60.4128 20.3769C61.241 20.8404 62.2105 21.0823 63.3012 21.0823C64.5535 21.0823 65.6241 20.8203 66.4724 20.3365L66.4926 20.3164V17.8978L66.3916 17.9784C66.0079 18.2606 65.5635 18.5024 65.1191 18.6435C64.6545 18.8048 64.2304 18.8854 63.8668 18.8854C62.8165 18.8854 61.9883 18.5831 61.4026 17.9179C60.7966 17.273 60.4936 16.3862 60.4936 15.2776C60.4936 14.1288 60.7966 13.2218 61.4228 12.5567C62.0489 11.8916 62.8771 11.5489 63.887 11.5489C64.7353 11.5489 65.6039 11.8311 66.3916 12.3955L66.4926 12.4761V9.91639L66.4724 9.89623C66.129 9.75515 65.7453 9.5939 65.2201 9.49313ZM73.8853 9.41251C73.239 9.41251 72.633 9.61406 72.1078 10.0373C71.6635 10.4001 71.3605 10.9241 71.0979 11.5489H71.0777V9.5939H68.4519V20.7598H71.0777V15.0559C71.0777 14.0885 71.2797 13.2823 71.7241 12.6978C72.1684 12.0931 72.734 11.7908 73.4208 11.7908C73.6631 11.7908 73.9055 11.8513 74.2085 11.8916C74.4913 11.9722 74.6933 12.0528 74.8347 12.1536L74.9357 12.2342V9.61406L74.8751 9.5939C74.6933 9.47297 74.3297 9.41251 73.8853 9.41251ZM81.0357 9.35205C79.1976 9.35205 77.7231 9.89623 76.6929 10.9644C75.6426 12.0327 75.1376 13.504 75.1376 15.3582C75.1376 17.0916 75.6628 18.5024 76.6727 19.5303C77.6827 20.5381 79.0562 21.0621 80.7731 21.0621C82.5708 21.0621 84.0049 20.5179 85.035 19.4296C86.0853 18.3412 86.5903 16.89 86.5903 15.0962C86.5903 13.3226 86.1055 11.9117 85.1158 10.8838C84.1665 9.85592 82.7728 9.35205 81.0357 9.35205ZM83.1363 17.9381C82.6516 18.5629 81.884 18.8652 80.9347 18.8652C79.9853 18.8652 79.2178 18.5629 78.6724 17.8978C78.1271 17.273 77.8645 16.366 77.8645 15.2172C77.8645 14.028 78.1473 13.121 78.6724 12.4761C79.2178 11.8311 79.9651 11.5086 80.9145 11.5086C81.8436 11.5086 82.5708 11.811 83.0959 12.4358C83.6211 13.0606 83.9039 13.9675 83.9039 15.1567C83.8635 16.366 83.6413 17.3133 83.1363 17.9381ZM92.4479 14.2296C91.6198 13.8869 91.0946 13.6249 90.8522 13.4032C90.6502 13.2017 90.5492 12.9195 90.5492 12.5567C90.5492 12.2544 90.6704 11.952 90.9734 11.7505C91.2764 11.5489 91.6198 11.4482 92.1247 11.4482C92.5691 11.4482 93.0337 11.5288 93.478 11.6497C93.9224 11.7706 94.3264 11.952 94.6496 12.1939L94.7506 12.2745V9.81561L94.69 9.79546C94.387 9.67453 93.983 9.5536 93.4982 9.45282C93.0135 9.3722 92.5691 9.33189 92.2055 9.33189C90.9532 9.33189 89.9231 9.63421 89.1151 10.2993C88.3072 10.9241 87.9234 11.7706 87.9234 12.7582C87.9234 13.2823 88.0042 13.7458 88.186 14.1288C88.3678 14.5117 88.6304 14.8745 88.9939 15.1769C89.3575 15.459 89.8827 15.7815 90.6098 16.0838C91.2158 16.3458 91.6804 16.5474 91.9631 16.7086C92.2459 16.8699 92.4277 17.0513 92.5691 17.1924C92.6701 17.3536 92.7307 17.5551 92.7307 17.8172C92.7307 18.5629 92.1651 18.9257 91.0138 18.9257C90.5694 18.9257 90.1049 18.8451 89.5595 18.6637C89.0141 18.4823 88.5092 18.2203 88.085 17.9179L87.984 17.8373V20.397L88.0446 20.4172C88.4284 20.5986 88.8929 20.7195 89.4585 20.8606C90.0241 20.9613 90.529 21.042 90.9734 21.042C92.3267 21.042 93.4376 20.7396 94.2254 20.0745C95.0333 19.4296 95.4575 18.6032 95.4575 17.535C95.4575 16.7893 95.2555 16.1241 94.8112 15.6203C94.2254 15.1365 93.4982 14.6327 92.4479 14.2296ZM102.386 9.35205C100.548 9.35205 99.0731 9.89623 98.0429 10.9644C97.0128 12.0327 96.4876 13.504 96.4876 15.3582C96.4876 17.0916 97.0128 18.5024 98.0227 19.5303C99.0327 20.5381 100.406 21.0621 102.123 21.0621C103.921 21.0621 105.355 20.5179 106.385 19.4296C107.435 18.3412 107.94 16.89 107.94 15.0962C107.94 13.3226 107.456 11.9117 106.466 10.8838C105.516 9.85592 104.123 9.35205 102.386 9.35205ZM104.466 17.9381C103.981 18.5629 103.214 18.8652 102.264 18.8652C101.295 18.8652 100.548 18.5629 100.002 17.8978C99.4569 17.273 99.1943 16.366 99.1943 15.2172C99.1943 14.028 99.4771 13.121 100.002 12.4761C100.548 11.8311 101.295 11.5086 102.244 11.5086C103.153 11.5086 103.901 11.811 104.426 12.4358C104.951 13.0606 105.234 13.9675 105.234 15.1567C105.234 16.366 104.971 17.3133 104.466 17.9381ZM121.978 11.7505V9.5939H119.332V6.28848L119.252 6.30863L116.747 7.05437L116.686 7.07453V9.5939H112.727V8.18305C112.727 7.53809 112.889 7.03422 113.172 6.71173C113.455 6.38925 113.879 6.22801 114.404 6.22801C114.767 6.22801 115.151 6.30863 115.575 6.49003L115.676 6.55049V4.27298L115.616 4.25282C115.252 4.13189 114.767 4.05127 114.141 4.05127C113.354 4.05127 112.667 4.23266 112.041 4.53499C111.414 4.87763 110.95 5.34119 110.607 5.966C110.263 6.57065 110.081 7.25592 110.081 8.04197V9.5939H108.243V11.7303H110.081V20.7598H112.727V11.7505H116.686V17.4947C116.686 19.8528 117.797 21.042 120.019 21.042C120.383 21.042 120.766 20.9815 121.13 20.921C121.514 20.8404 121.797 20.7396 121.958 20.659L121.978 20.6389V18.4823L121.877 18.5629C121.716 18.6637 121.574 18.7443 121.332 18.8048C121.13 18.8652 120.948 18.8854 120.807 18.8854C120.282 18.8854 119.918 18.7644 119.656 18.4621C119.413 18.18 119.292 17.7164 119.292 17.0311V11.7505H121.978Z" fill="#737373"/>
<path d="M0 0H12.3818V12.355H0V0Z" fill="#F25022"/>
<path d="M13.6719 0H26.0537V12.355H13.6719V0Z" fill="#7FBA00"/>
<path d="M0 13.645H12.3818V26.0001H0V13.645Z" fill="#00A4EF"/>
<path d="M13.6719 13.645H26.0537V26.0001H13.6719V13.645Z" fill="#FFB900"/>
</g>
<defs>
<clipPath id="clip0_1695_22053">
<rect width="122" height="26" fill="white"/>
</clipPath>
</defs>
</svg>
