<svg width="83" height="34" viewBox="0 0 83 34" fill="none" xmlns="http://www.w3.org/2000/svg">
<g clip-path="url(#clip0_1682_22319)">
<path d="M38.7488 9.7251H32.7422V25.873H38.7488V9.7251Z" fill="#000064"/>
<path d="M54.7944 11.4243C54.1632 10.7387 53.3818 10.192 52.5048 9.82222C51.6279 9.45248 50.6764 9.26865 49.7168 9.28355C48.5604 9.27226 47.4145 9.4922 46.3537 9.92903C45.293 10.3659 44.3412 11.0098 43.5604 11.8188C42.7821 12.6278 42.169 13.5668 41.7523 14.5882C41.3013 15.6859 41.0754 16.8553 41.0868 18.0334C41.071 19.1674 41.2799 20.2941 41.7024 21.355C42.0805 22.3093 42.6637 23.1786 43.4152 23.9076C44.1667 24.6365 45.0699 25.2092 46.0673 25.5892C47.1317 25.9952 48.2701 26.1981 49.4173 26.1862C49.9289 26.1893 50.44 26.1524 50.9453 26.0758C51.4015 26.0045 51.8473 25.8827 52.2736 25.7129C52.7105 25.5385 53.1277 25.3226 53.5187 25.0685C53.9734 24.7726 54.4011 24.4409 54.7972 24.077V25.6208C54.7972 26.8148 54.4598 27.7484 53.785 28.4217C53.1102 29.095 52.1423 29.4307 50.8815 29.429C49.4025 29.429 48.4513 28.8933 48.0279 27.8221H41.2532C41.4276 28.6959 41.7891 29.5265 42.3153 30.2627C42.866 31.0245 43.5575 31.6856 44.3563 32.2141C45.2436 32.7987 46.2251 33.2428 47.2625 33.5291C49.5265 34.1261 51.9147 34.1578 54.1954 33.6211C55.142 33.3935 56.0516 33.0449 56.8992 32.5849C57.6568 32.1721 58.3409 31.6484 58.9264 31.0332C59.4689 30.4701 59.8917 29.8128 60.1715 29.0976C60.3884 28.4833 60.5444 27.8511 60.6374 27.2093C60.7534 26.4058 60.809 25.5955 60.8038 24.7845V9.73065H54.7944V11.4243ZM54.7777 19.1827C54.577 19.6203 54.2953 20.0202 53.9458 20.3635C53.5977 20.7037 53.1796 20.9723 52.7173 21.1525C52.2397 21.3423 51.7266 21.4389 51.2087 21.4366C50.679 21.441 50.1537 21.3444 49.6641 21.1525C49.2022 20.9716 48.7841 20.7031 48.4356 20.3635C48.0896 20.0213 47.814 19.6208 47.6231 19.1827C47.4207 18.7193 47.3188 18.222 47.3236 17.7204C47.3205 17.2327 47.4283 16.7501 47.6397 16.3055C47.8388 15.8765 48.121 15.4866 48.4716 15.1562C48.8308 14.8288 49.2463 14.562 49.7001 14.3672C50.1698 14.1664 50.6797 14.0641 51.1948 14.0674C51.7017 14.0671 52.2035 14.1637 52.6702 14.3515C53.1353 14.5353 53.5582 14.8033 53.9153 15.1405C54.2647 15.4778 54.5466 15.8726 54.7472 16.3055C54.9577 16.7616 55.0663 17.2541 55.0663 17.752C55.0663 18.2499 54.9577 18.7423 54.7472 19.1985L54.7777 19.1827Z" fill="#000064"/>
<path d="M82.2364 14.3041C81.737 13.2586 81.007 12.3268 80.0956 11.5716C79.1402 10.7846 78.0365 10.176 76.8427 9.77796C75.5381 9.33758 74.162 9.11858 72.7773 9.13099C71.3802 9.11698 69.9918 9.34147 68.6786 9.79374C67.4902 10.1975 66.3924 10.8095 65.4423 11.5979C64.5452 12.3515 63.822 13.2729 63.3181 14.3041C62.8077 15.3553 62.5473 16.5 62.5555 17.6573C62.5384 18.8959 62.7983 20.1239 63.3181 21.2603C63.8096 22.3171 64.5273 23.2655 65.4257 24.0454C66.3551 24.8417 67.4446 25.4517 68.6287 25.8391C69.9297 26.2697 71.2995 26.4833 72.6774 26.4703C74.0824 26.4825 75.4795 26.2691 76.8094 25.8391C78.0123 25.4587 79.123 24.8543 80.0762 24.0612C80.9817 23.2988 81.7107 22.3666 82.217 21.3234C82.7469 20.222 83.013 19.023 82.9963 17.8125C83.0135 16.6046 82.7543 15.4077 82.2364 14.3041ZM76.3463 19.2142C76.1445 19.6513 75.8629 20.051 75.5144 20.3951C75.1658 20.7347 74.7477 21.0031 74.2859 21.1841C73.3188 21.5626 72.233 21.5626 71.2659 21.1841C70.8036 21.0038 70.3855 20.7352 70.0374 20.3951C69.688 20.0517 69.4062 19.6518 69.2055 19.2142C68.9902 18.743 68.8825 18.2339 68.8893 17.7204C68.8862 17.2327 68.9941 16.7501 69.2055 16.3055C69.4091 15.8742 69.6907 15.4799 70.0374 15.1404C70.3862 14.8011 70.8042 14.5327 71.2659 14.3514C72.233 13.9728 73.3188 13.9728 74.2859 14.3514C74.7472 14.5333 75.165 14.8017 75.5144 15.1404C75.8623 15.4849 76.1439 15.8846 76.3463 16.3213C76.557 16.7726 76.6648 17.261 76.6624 17.7546C76.667 18.2577 76.5593 18.756 76.3463 19.2168V19.2142Z" fill="#000064"/>
<path d="M20.8651 9.0127C18.8318 8.98557 16.8503 9.62155 15.2523 10.8142C15.1332 10.9017 14.9869 10.9491 14.8363 10.9491C14.6857 10.9491 14.5394 10.9017 14.4203 10.8142C12.8193 9.61926 10.8335 8.98315 8.79639 9.0127C3.88239 9.08108 0 12.9892 0 17.6389V25.8707H6.00662V17.5495C5.99978 16.8542 6.26462 16.1812 6.75005 15.6601C7.23549 15.139 7.90716 14.8068 8.63555 14.7276C9.40324 14.6572 10.169 14.8785 10.7648 15.343C11.3606 15.8074 11.7378 16.4771 11.8136 17.205C11.8136 17.2927 11.8136 17.3803 11.8136 17.468V25.8707H17.834V17.5495C17.8264 16.8549 18.0903 16.1822 18.5747 15.6611C19.0591 15.14 19.7298 14.8075 20.4574 14.7276C21.2253 14.6572 21.9911 14.879 22.5866 15.3441C23.182 15.8091 23.5583 16.4795 23.6327 17.2076C23.6327 17.2953 23.6327 17.383 23.6327 17.4706V25.8707H29.6393V17.6389C29.6504 12.9892 25.768 9.08108 20.8651 9.0127Z" fill="#0000FF"/>
<path d="M6.55157 0.0367734L11.5432 2.76929C11.5859 2.79223 11.6214 2.82549 11.6461 2.86569C11.6708 2.90589 11.6838 2.95158 11.6838 2.9981C11.6838 3.04462 11.6708 3.09031 11.6461 3.13051C11.6214 3.1707 11.5859 3.20397 11.5432 3.2269L6.55157 5.95942C6.50926 5.98321 6.46105 5.99591 6.41186 5.9962C6.36268 5.99649 6.3143 5.98437 6.27168 5.96109C6.22907 5.9378 6.19375 5.90418 6.16935 5.86368C6.14495 5.82318 6.13234 5.77726 6.13283 5.73062V0.262949C6.13283 0.216529 6.1458 0.170939 6.1704 0.130809C6.195 0.0906784 6.23036 0.0574384 6.2729 0.0344654C6.31543 0.0114923 6.36362 -0.000395352 6.41256 1.00316e-05C6.46151 0.000415416 6.50947 0.0130994 6.55157 0.0367734Z" fill="#0000FF"/>
<path d="M18.4707 0.036401L23.4623 2.76892C23.505 2.79186 23.5405 2.82512 23.5652 2.86532C23.5899 2.90551 23.6029 2.9512 23.6029 2.99773C23.6029 3.04425 23.5899 3.08994 23.5652 3.13013C23.5405 3.17033 23.505 3.20359 23.4623 3.22653L18.4707 5.95905C18.4284 5.98218 18.3805 5.99433 18.3317 5.99429C18.283 5.99424 18.2351 5.982 18.1929 5.95879C18.1507 5.93558 18.1157 5.90223 18.0914 5.86211C18.0672 5.82198 18.0545 5.7765 18.0547 5.73024V0.262577C18.0545 0.216323 18.0672 0.170839 18.0914 0.130712C18.1157 0.0905864 18.1507 0.0572379 18.1929 0.0340313C18.2351 0.0108247 18.283 -0.00141902 18.3317 -0.00146472C18.3805 -0.00151041 18.4284 0.0106435 18.4707 0.033771V0.036401Z" fill="#0000FF"/>
</g>
<defs>
<clipPath id="clip0_1682_22319">
<rect width="83" height="34" fill="white"/>
</clipPath>
</defs>
</svg>
